{"title":"Bhag Milkha Bhag (2013) - 1CD -  SCAMRIP - [Xvid - Mp3] .avi","uid":8678943,"size":725267602,"categoryP":"video","categoryS":"movies","magnet":"?xt=urn:btih:d188de5ae15d0a5fe938c77b790d28bea304347c&amp;dn=Bhag+Milkha+Bhag+%282013%29+-+1CD+-++SCAMRIP+-+%5BXvid+-+Mp3%5D+.avi&amp;tr=udp%3A%2F%2Ftracker.openbittorrent.com%3A80&amp;tr=udp%3A%2F%2Fopen.demonii.com%3A1337&amp;tr=udp%3A%2F%2Ftracker.coppersurfer.tk%3A6969&amp;tr=udp%3A%2F%2Fexodus.desync.com%3A6969","seeders":1,"leechers":0,"uploader":"MaVampire","files":1,"time":1373657167,"description":"Bhag Milkha Bhag (2013) - 1CD -  SCAMRIP - [Xvid - Mp3]\n\n[IMG]http://imageshack.us/a/img694/1133/dddstd.png[/IMG]\n\n[IMG]http://imageshack.us/a/img35/7180/0tit.jpg[/IMG]\n\n[IMG]http://imageshack.us/a/img214/6751/2video.png[/IMG]\nGeneral\nFormat                                   : AVI\nFormat/Info                              : Audio Video Interleave\nFile size                                : 692 MiB\nDuration                                 : 2h 47mn\nOverall bit rate                         : 577 Kbps\n\nVideo\nID                                       : 0\nFormat                                   : MPEG-4 Visual\nFormat profile                           : Advanced Simple@L5\nFormat settings, BVOP                    : 2\nFormat settings, QPel                    : No\nFormat settings, GMC                     : No warppoints\nFormat settings, Matrix                  : Default (H.263)\nCodec ID                                 : XVID\nCodec ID/Hint                            : XviD\nDuration                                 : 2h 47mn\nBit rate                                 : 491 Kbps\nWidth                                    : 608 pixels\nHeight                                   : 288 pixels\nFrame rate                               : 25.000 fps\nColor space                              : YUV\nChroma subsampling                       : 4:2:0\nBit depth                                : 8 bits\nScan type                                : Progressive\nCompression mode                         : Lossy\nBits/(Pixel*Frame)                       : 0.112\nStream size                              : 588 MiB (85%)\n[IMG]http://imageshack.us/a/img96/1820/3audio.png[/IMG]\nAudio\nID                                       : 1\nFormat                                   : MPEG Audio\nFormat version                           : Version 1\nFormat profile                           : Layer 3\nMode                                     : Joint stereo\nMode extension                           : MS Stereo\nCodec ID                                 : 55\nCodec ID/Hint                            : MP3\nDuration                                 : 2h 47mn\nBit rate mode                            : Constant\nBit rate                                 : 80.0 Kbps\nChannel(s)                               : 2 channels\nSampling rate                            : 32.0 KHz\nCompression mode                         : Lossy\nStream size                              : 95.9 MiB (14%)\n\n[IMG]http://imageshack.us/a/img593/8246/ptx7k.png[/IMG]\n[IMG]http://imageshack.us/a/img826/2913/q53g.png[/IMG]\n[IMG]http://imageshack.us/a/img109/7047/qpya.png[/IMG]\n[IMG]http://imageshack.us/a/img89/3457/cogb.png[/IMG]\n[IMG]http://imageshack.us/a/img845/6442/xzf.png[/IMG]\n[IMG]http://imageshack.us/a/img838/38/9p87.png[/IMG]\n[IMG]http://imageshack.us/a/img834/9291/kq79.png[/IMG]\n\n\n[img]http://www.btpics.com/images/DLnUJ.gif[/img]","torrent":{"xt":"urn:btih:d188de5ae15d0a5fe938c77b790d28bea304347c","amp;dn":"Bhag+Milkha+Bhag+%282013%29+-+1CD+-++SCAMRIP+-+%5BXvid+-+Mp3%5D+.avi","amp;tr":["udp%3A%2F%2Ftracker.openbittorrent.com%3A80","udp%3A%2F%2Fopen.demonii.com%3A1337","udp%3A%2F%2Ftracker.coppersurfer.tk%3A6969","udp%3A%2F%2Fexodus.desync.com%3A6969"],"infoHash":"d188de5ae15d0a5fe938c77b790d28bea304347c","infoHashBuffer":{"type":"Buffer","data":[209,136,222,90,225,93,10,95,233,56,199,123,121,13,40,190,163,4,52,124]},"announce":[],"urlList":[]}}